<svg xmlns="http://www.w3.org/2000/svg" viewBox="0 0 72 72" width="72" height="72"><defs>
<linearGradient id="pt" x1="0" y1="1" x2="0" y2="0"><stop offset="0" stop-color="#eeb2bf"/><stop offset=".38" stop-color="#f8dadf"/><stop offset="1" stop-color="#fffaf6"/></linearGradient>
<linearGradient id="pt2" x1="0" y1="1" x2="0" y2="0"><stop offset="0" stop-color="#e79fb0"/><stop offset=".5" stop-color="#f5cfd6"/><stop offset="1" stop-color="#fdeeec"/></linearGradient>
<linearGradient id="bd" x1="0" y1="1" x2="0" y2="0"><stop offset="0" stop-color="#e68ea3"/><stop offset=".55" stop-color="#f4c2cc"/><stop offset="1" stop-color="#fdece9"/></linearGradient>
<linearGradient id="lf" x1="0" y1="1" x2="1" y2="0"><stop offset="0" stop-color="#3b1530"/><stop offset="1" stop-color="#7b3556"/></linearGradient>
<linearGradient id="lf2" x1="0" y1="1" x2="1" y2="0"><stop offset="0" stop-color="#8b5a4c"/><stop offset="1" stop-color="#c79a7d"/></linearGradient>
<radialGradient id="ctr"><stop offset="0" stop-color="#f7c58f"/><stop offset="1" stop-color="#d0776f"/></radialGradient></defs><g transform="translate(36 42) rotate(8) scale(0.5)"><path transform="rotate(3.5) scale(0.9)" d="M0,0C-24,-4 -38,-34 -27,-58C-19,-75 -7,-82 0,-82C7,-82 19,-75 27,-58C38,-34 24,-4 0,0Z" fill="url(#pt)" stroke="#b5788a" stroke-opacity=".3" stroke-width=".9" opacity="1"/><path transform="rotate(59.3) scale(0.9)" d="M0,0C-24,-4 -38,-34 -27,-58C-19,-75 -7,-82 0,-82C7,-82 19,-75 27,-58C38,-34 24,-4 0,0Z" fill="url(#pt)" stroke="#b5788a" stroke-opacity=".3" stroke-width=".9" opacity="1"/><path transform="rotate(124.2) scale(1)" d="M0,0C-24,-4 -38,-34 -27,-58C-19,-75 -7,-82 0,-82C7,-82 19,-75 27,-58C38,-34 24,-4 0,0Z" fill="url(#pt)" stroke="#b5788a" stroke-opacity=".3" stroke-width=".9" opacity="1"/><path transform="rotate(179.8) scale(0.9)" d="M0,0C-24,-4 -38,-34 -27,-58C-19,-75 -7,-82 0,-82C7,-82 19,-75 27,-58C38,-34 24,-4 0,0Z" fill="url(#pt)" stroke="#b5788a" stroke-opacity=".3" stroke-width=".9" opacity="1"/><path transform="rotate(236.2) scale(1)" d="M0,0C-24,-4 -38,-34 -27,-58C-19,-75 -7,-82 0,-82C7,-82 19,-75 27,-58C38,-34 24,-4 0,0Z" fill="url(#pt)" stroke="#b5788a" stroke-opacity=".3" stroke-width=".9" opacity="1"/><path transform="rotate(295.1) scale(0.9)" d="M0,0C-24,-4 -38,-34 -27,-58C-19,-75 -7,-82 0,-82C7,-82 19,-75 27,-58C38,-34 24,-4 0,0Z" fill="url(#pt)" stroke="#b5788a" stroke-opacity=".3" stroke-width=".9" opacity="1"/><path transform="rotate(22.6) scale(0.7)" d="M0,0C-24,-4 -38,-34 -27,-58C-19,-75 -7,-82 0,-82C7,-82 19,-75 27,-58C38,-34 24,-4 0,0Z" fill="url(#pt2)" stroke="#b5788a" stroke-opacity=".3" stroke-width=".9" opacity="0.98"/><path transform="rotate(95.5) scale(0.8)" d="M0,0C-24,-4 -38,-34 -27,-58C-19,-75 -7,-82 0,-82C7,-82 19,-75 27,-58C38,-34 24,-4 0,0Z" fill="url(#pt2)" stroke="#b5788a" stroke-opacity=".3" stroke-width=".9" opacity="0.98"/><path transform="rotate(161.9) scale(0.7)" d="M0,0C-24,-4 -38,-34 -27,-58C-19,-75 -7,-82 0,-82C7,-82 19,-75 27,-58C38,-34 24,-4 0,0Z" fill="url(#pt2)" stroke="#b5788a" stroke-opacity=".3" stroke-width=".9" opacity="0.98"/><path transform="rotate(233.4) scale(0.7)" d="M0,0C-24,-4 -38,-34 -27,-58C-19,-75 -7,-82 0,-82C7,-82 19,-75 27,-58C38,-34 24,-4 0,0Z" fill="url(#pt2)" stroke="#b5788a" stroke-opacity=".3" stroke-width=".9" opacity="0.98"/><path transform="rotate(308.3) scale(0.8)" d="M0,0C-24,-4 -38,-34 -27,-58C-19,-75 -7,-82 0,-82C7,-82 19,-75 27,-58C38,-34 24,-4 0,0Z" fill="url(#pt2)" stroke="#b5788a" stroke-opacity=".3" stroke-width=".9" opacity="0.98"/><path transform="rotate(-25.7) scale(0.5)" d="M0,0C-24,-4 -38,-34 -27,-58C-19,-75 -7,-82 0,-82C7,-82 19,-75 27,-58C38,-34 24,-4 0,0Z" fill="url(#pt)" stroke="#b5788a" stroke-opacity=".3" stroke-width=".9" opacity="0.95"/><path transform="rotate(7) scale(0.5)" d="M0,0C-24,-4 -38,-34 -27,-58C-19,-75 -7,-82 0,-82C7,-82 19,-75 27,-58C38,-34 24,-4 0,0Z" fill="url(#pt)" stroke="#b5788a" stroke-opacity=".3" stroke-width=".9" opacity="0.95"/><path transform="rotate(37.5) scale(0.5)" d="M0,0C-24,-4 -38,-34 -27,-58C-19,-75 -7,-82 0,-82C7,-82 19,-75 27,-58C38,-34 24,-4 0,0Z" fill="url(#pt)" stroke="#b5788a" stroke-opacity=".3" stroke-width=".9" opacity="0.95"/><circle r="10" fill="url(#ctr)"/><circle cx="0.4" cy="-7.3" r="1.5" fill="#e0955f" opacity=".9"/><circle cx="2.1" cy="-4.8" r="1.5" fill="#e0955f" opacity=".9"/><circle cx="2.3" cy="-1.9" r="1.5" fill="#e0955f" opacity=".9"/><circle cx="5.4" cy="-2.2" r="1.5" fill="#e0955f" opacity=".9"/><circle cx="6.6" cy="0.8" r="1.5" fill="#e0955f" opacity=".9"/><circle cx="6.8" cy="3.6" r="1.5" fill="#e0955f" opacity=".9"/><circle cx="4.2" cy="4.9" r="1.5" fill="#e0955f" opacity=".9"/><circle cx="2" cy="4.9" r="1.5" fill="#e0955f" opacity=".9"/><circle cx="-0.6" cy="8" r="1.5" fill="#e0955f" opacity=".9"/><circle cx="-2.5" cy="5.2" r="1.5" fill="#e0955f" opacity=".9"/><circle cx="-4.8" cy="4.2" r="1.5" fill="#e0955f" opacity=".9"/><circle cx="-7.8" cy="2.3" r="1.5" fill="#e0955f" opacity=".9"/><circle cx="-5.2" cy="-0.5" r="1.5" fill="#e0955f" opacity=".9"/><circle cx="-6.4" cy="-3.4" r="1.5" fill="#e0955f" opacity=".9"/><circle cx="-5.9" cy="-6.7" r="1.5" fill="#e0955f" opacity=".9"/><circle cx="-1.9" cy="-7" r="1.5" fill="#e0955f" opacity=".9"/></g></svg>
