<svg xmlns="http://www.w3.org/2000/svg" viewBox="444 180 190 560" width="190" height="560"><defs>
<linearGradient id="pt" x1="0" y1="1" x2="0" y2="0"><stop offset="0" stop-color="#eeb2bf"/><stop offset=".38" stop-color="#f8dadf"/><stop offset="1" stop-color="#fffaf6"/></linearGradient>
<linearGradient id="pt2" x1="0" y1="1" x2="0" y2="0"><stop offset="0" stop-color="#e79fb0"/><stop offset=".5" stop-color="#f5cfd6"/><stop offset="1" stop-color="#fdeeec"/></linearGradient>
<linearGradient id="bd" x1="0" y1="1" x2="0" y2="0"><stop offset="0" stop-color="#e68ea3"/><stop offset=".55" stop-color="#f4c2cc"/><stop offset="1" stop-color="#fdece9"/></linearGradient>
<linearGradient id="lf" x1="0" y1="1" x2="1" y2="0"><stop offset="0" stop-color="#3b1530"/><stop offset="1" stop-color="#7b3556"/></linearGradient>
<linearGradient id="lf2" x1="0" y1="1" x2="1" y2="0"><stop offset="0" stop-color="#8b5a4c"/><stop offset="1" stop-color="#c79a7d"/></linearGradient>
<radialGradient id="ctr"><stop offset="0" stop-color="#f7c58f"/><stop offset="1" stop-color="#d0776f"/></radialGradient>
<linearGradient id="sky" x1="0" y1="0" x2="0" y2="1"><stop offset="0" stop-color="#fbeee8"/><stop offset=".45" stop-color="#fbe4dc"/><stop offset="1" stop-color="#f6c9c3"/></linearGradient>
<radialGradient id="sun" cx="222" cy="748" r="230" gradientUnits="userSpaceOnUse"><stop offset="0" stop-color="#fff6e6" stop-opacity=".95"/><stop offset=".25" stop-color="#ffe0c8" stop-opacity=".55"/><stop offset="1" stop-color="#f8c9c0" stop-opacity="0"/></radialGradient>
<linearGradient id="lake" x1="0" y1="0" x2="0" y2="1"><stop offset="0" stop-color="#f6dcd6"/><stop offset="1" stop-color="#ebc3c2"/></linearGradient>
<linearGradient id="stone" x1="0" y1="0" x2="1" y2="0"><stop offset="0" stop-color="#f2e2d9"/><stop offset=".5" stop-color="#e8d0c4"/><stop offset="1" stop-color="#dcc0b3"/></linearGradient>
<linearGradient id="col" x1="0" y1="0" x2="1" y2="0"><stop offset="0" stop-color="#f5e8df"/><stop offset=".35" stop-color="#ead5c9"/><stop offset="1" stop-color="#d4b6a8"/></linearGradient>
<linearGradient id="cur" x1="0" y1="0" x2="1" y2="0"><stop offset="0" stop-color="#f1bfc4" stop-opacity=".7"/><stop offset=".55" stop-color="#f6cfcf" stop-opacity=".48"/><stop offset="1" stop-color="#fbe2de" stop-opacity=".26"/></linearGradient>
<linearGradient id="cur2" x1="0" y1="0" x2="1" y2="0"><stop offset="0" stop-color="#f8d6d6" stop-opacity=".5"/><stop offset=".6" stop-color="#fbe6e2" stop-opacity=".4"/><stop offset="1" stop-color="#fff2ee" stop-opacity=".3"/></linearGradient>
<linearGradient id="step" x1="0" y1="0" x2="0" y2="1"><stop offset="0" stop-color="#f6e6dc"/><stop offset="1" stop-color="#e2c6bb"/></linearGradient>
<linearGradient id="fade" x1="0" y1="0" x2="0" y2="1"><stop offset="0" stop-color="#fff" stop-opacity="0"/><stop offset="1" stop-color="#fff2ec" stop-opacity=".8"/></linearGradient>
<filter id="soft"><feGaussianBlur stdDeviation="6"/></filter><filter id="soft2"><feGaussianBlur stdDeviation="2"/></filter></defs><g transform="translate(720 0) scale(-1 1)"><path d="M100,196C176,244 232,352 226,470C222,560 178,628 134,684L110,704L100,704Z" fill="url(#cur)"/><path d="M100,196C176,244 232,352 226,470C222,560 178,628 134,684L110,704L100,704Z" fill="none" stroke="#fff" stroke-opacity=".3" stroke-width="1.6"/><path d="M114,214C158,292 184,410 166,540C160,596 140,650 122,694" fill="none" stroke="#fff" stroke-opacity="0.36" stroke-width="2.2" stroke-linecap="round"/><path d="M132,226C190,312 212,424 198,530C190,596 156,652 128,696" fill="none" stroke="#fff" stroke-opacity="0.36" stroke-width="2.2" stroke-linecap="round"/><path d="M150,240C212,334 224,440 214,516" fill="none" stroke="#fff" stroke-opacity="0.36" stroke-width="2.2" stroke-linecap="round"/><path d="M100,690C112,702 130,702 146,692" fill="none" stroke="#d9a9a2" stroke-width="5" stroke-linecap="round"/><ellipse cx="119" cy="696" rx="10" ry="8" fill="#e4bcb2"/><path d="M119,704v24" stroke="#d9a9a2" stroke-width="3" stroke-linecap="round"/><ellipse cx="119" cy="731" rx="4" ry="6" fill="#e4bcb2"/></g></svg>
